<svg width="48" height="48" viewBox="0 0 48 48" fill="none" xmlns="http://www.w3.org/2000/svg">
<path d="M2.63826 23.6513L9.76217 28.6876L7.05669 36.798C6.61947 38.0559 6.61393 39.4168 7.0409 40.678C7.46786 41.9392 8.30447 43.0331 9.42599 43.7965C10.5283 44.5844 11.8641 45.0066 13.2344 44.9999C14.6047 44.9933 15.9361 44.5583 17.0302 43.7597L23.996 38.797L30.9638 43.7539C32.0641 44.5373 33.3928 44.9628 34.7587 44.9693C36.1246 44.9757 37.4574 44.5628 38.5655 43.7897C39.6737 43.0167 40.5001 41.9235 40.9259 40.6672C41.3517 39.4109 41.355 38.0562 40.9353 36.798L38.2298 28.6876L45.3537 23.6513C46.4526 22.8736 47.2695 21.7796 47.6877 20.5257C48.1059 19.2717 48.104 17.9219 47.6824 16.669C47.2607 15.4161 46.4408 14.3243 45.3398 13.5494C44.2387 12.7746 42.9129 12.3563 41.5517 12.3545H32.8008L30.1454 4.34287C29.7278 3.08177 28.9072 1.98164 27.802 1.20112C26.6968 0.420589 25.3641 0 23.996 0C22.6279 0 21.2952 0.420589 20.19 1.20112C19.0848 1.98164 18.2642 3.08177 17.8466 4.34287L15.1912 12.3545H6.44835C5.08709 12.3563 3.76126 12.7746 2.66023 13.5494C1.5592 14.3243 0.739296 15.4161 0.317625 16.669C-0.104045 17.9219 -0.105912 19.2717 0.312293 20.5257C0.730497 21.7796 1.54738 22.8736 2.64626 23.6513H2.63826Z" fill="#222222"/>
</svg>
